HIERARCHY
ROOT Hips
{
    OFFSET   0.000000   0.000000   0.000000
    CHANNELS 6 Xposition Yposition Zposition Zrotation Xrotation Yrotation
    JOINT Chest
    {
        OFFSET   0.000000   8.007230   0.000000
        CHANNELS 3 Zrotation Xrotation Yrotation
        JOINT Chest2
        {
            OFFSET   0.000000  22.077100   0.000000
            CHANNELS 3 Zrotation Xrotation Yrotation
            JOINT Neck
            {
                OFFSET   0.000000  23.255100   0.000000
                CHANNELS 3 Zrotation Xrotation Yrotation
                JOINT Head
                {
                    OFFSET   0.000000  14.370100   1.956600
                    CHANNELS 3 Zrotation Xrotation Yrotation
                    End Site
                    {
                        OFFSET   0.000000  19.566000   0.000000
                    }
                }
            }
            JOINT LeftCollar
            {
                OFFSET   3.911900  19.017000  -0.467063
                CHANNELS 3 Zrotation Xrotation Yrotation
                JOINT LeftShoulder
                {
                    OFFSET  10.383700   0.000000   0.000000
                    CHANNELS 3 Zrotation Xrotation Yrotation
                    JOINT LeftElbow
                    {
                        OFFSET  26.662100   0.001193   0.000980
                        CHANNELS 3 Zrotation Xrotation Yrotation
                        JOINT LeftWrist
                        {
                            OFFSET  28.869000  -0.000059  -0.000082
                            CHANNELS 3 Zrotation Xrotation Yrotation
                            JOINT LeftFinger0
                            {
                                OFFSET   2.044650  -2.323450   3.252850
                                CHANNELS 3 Zrotation Xrotation Yrotation
                                JOINT LeftFinger01
                                {
                                    OFFSET   3.088130   0.000000   0.000000
                                    CHANNELS 3 Zrotation Xrotation Yrotation
                                    JOINT LeftFinger02
                                    {
                                        OFFSET   2.639460   0.000000   0.000000
                                        CHANNELS 3 Zrotation Xrotation Yrotation
                                        End Site
                                        {
                                            OFFSET   2.582190   0.000000   0.000000
                                        }
                                    }
                                }
                            }
                            JOINT LeftFinger1
                            {
                                OFFSET   8.364480   0.000000   3.252850
                                CHANNELS 3 Zrotation Xrotation Yrotation
                                JOINT LeftFinger11
                                {
                                    OFFSET   4.646930   0.000000   0.000000
                                    CHANNELS 3 Zrotation Xrotation Yrotation
                                    JOINT LeftFinger12
                                    {
                                        OFFSET   2.323470   0.000000   0.000000
                                        CHANNELS 3 Zrotation Xrotation Yrotation
                                        End Site
                                        {
                                            OFFSET   2.273050   0.000000   0.000000
                                        }
                                    }
                                }
                            }
                            JOINT LeftFinger2
                            {
                                OFFSET   8.364490   0.000016   1.078090
                                CHANNELS 3 Zrotation Xrotation Yrotation
                                JOINT LeftFinger21
                                {
                                    OFFSET   5.111610   0.000000   0.000000
                                    CHANNELS 3 Zrotation Xrotation Yrotation
                                    JOINT LeftFinger22
                                    {
                                        OFFSET   2.788150   0.000016   0.000000
                                        CHANNELS 3 Zrotation Xrotation Yrotation
                                        End Site
                                        {
                                            OFFSET   2.727660   0.000000   0.000000
                                        }
                                    }
                                }
                            }
                            JOINT LeftFinger3
                            {
                                OFFSET   7.899780   0.000015  -1.078090
                                CHANNELS 3 Zrotation Xrotation Yrotation
                                JOINT LeftFinger31
                                {
                                    OFFSET   4.646930   0.000000   0.000000
                                    CHANNELS 3 Zrotation Xrotation Yrotation
                                    JOINT LeftFinger32
                                    {
                                        OFFSET   2.323470   0.000000   0.000000
                                        CHANNELS 3 Zrotation Xrotation Yrotation
                                        End Site
                                        {
                                            OFFSET   2.273050   0.000000   0.000000
                                        }
                                    }
                                }
                            }
                            JOINT LeftFinger4
                            {
                                OFFSET   7.435090   0.000000  -3.252850
                                CHANNELS 3 Zrotation Xrotation Yrotation
                                JOINT LeftFinger41
                                {
                                    OFFSET   3.717550   0.000000   0.000000
                                    CHANNELS 3 Zrotation Xrotation Yrotation
                                    JOINT LeftFinger42
                                    {
                                        OFFSET   1.858770   0.000000   0.000000
                                        CHANNELS 3 Zrotation Xrotation Yrotation
                                        End Site
                                        {
                                            OFFSET   1.818440   0.000000   0.000000
                                        }
                                    }
                                }
                            }
                        }
                    }
                }
            }
            JOINT RightCollar
            {
                OFFSET  -3.911910  19.017000  -0.467062
                CHANNELS 3 Zrotation Xrotation Yrotation
                JOINT RightShoulder
                {
                    OFFSET -10.383700   0.000014   0.000000
                    CHANNELS 3 Zrotation Xrotation Yrotation
                    JOINT RightElbow
                    {
                        OFFSET -26.662100   0.001225   0.001091
                        CHANNELS 3 Zrotation Xrotation Yrotation
                        JOINT RightWrist
                        {
                            OFFSET -28.869000  -0.000020  -0.000085
                            CHANNELS 3 Zrotation Xrotation Yrotation
                            JOINT RightFinger0
                            {
                                OFFSET  -2.044650  -2.323490   3.252850
                                CHANNELS 3 Zrotation Xrotation Yrotation
                                JOINT RightFinger01
                                {
                                    OFFSET  -3.088130   0.000000   0.000000
                                    CHANNELS 3 Zrotation Xrotation Yrotation
                                    JOINT RightFinger02
                                    {
                                        OFFSET  -2.639460   0.000000   0.000000
                                        CHANNELS 3 Zrotation Xrotation Yrotation
                                        End Site
                                        {
                                            OFFSET  -2.582190   0.000000   0.000000
                                        }
                                    }
                                }
                            }
                            JOINT RightFinger1
                            {
                                OFFSET  -8.364480   0.000000   3.252850
                                CHANNELS 3 Zrotation Xrotation Yrotation
                                JOINT RightFinger11
                                {
                                    OFFSET  -4.646930   0.000000   0.000000
                                    CHANNELS 3 Zrotation Xrotation Yrotation
                                    JOINT RightFinger12
                                    {
                                        OFFSET  -2.323470   0.000000   0.000000
                                        CHANNELS 3 Zrotation Xrotation Yrotation
                                        End Site
                                        {
                                            OFFSET  -2.273050   0.000000   0.000000
                                        }
                                    }
                                }
                            }
                            JOINT RightFinger2
                            {
                                OFFSET  -8.364480   0.000000   1.078090
                                CHANNELS 3 Zrotation Xrotation Yrotation
                                JOINT RightFinger21
                                {
                                    OFFSET  -5.111620   0.000000   0.000000
                                    CHANNELS 3 Zrotation Xrotation Yrotation
                                    JOINT RightFinger22
                                    {
                                        OFFSET  -2.788160   0.000000   0.000000
                                        CHANNELS 3 Zrotation Xrotation Yrotation
                                        End Site
                                        {
                                            OFFSET  -2.727660   0.000000   0.000000
                                        }
                                    }
                                }
                            }
                            JOINT RightFinger3
                            {
                                OFFSET  -7.899780   0.000000  -1.078090
                                CHANNELS 3 Zrotation Xrotation Yrotation
                                JOINT RightFinger31
                                {
                                    OFFSET  -4.646930   0.000000   0.000000
                                    CHANNELS 3 Zrotation Xrotation Yrotation
                                    JOINT RightFinger32
                                    {
                                        OFFSET  -2.323470   0.000000   0.000000
                                        CHANNELS 3 Zrotation Xrotation Yrotation
                                        End Site
                                        {
                                            OFFSET  -2.273050   0.000000   0.000000
                                        }
                                    }
                                }
                            }
                            JOINT RightFinger4
                            {
                                OFFSET  -7.435090   0.000000  -3.252850
                                CHANNELS 3 Zrotation Xrotation Yrotation
                                JOINT RightFinger41
                                {
                                    OFFSET  -3.717550   0.000000   0.000000
                                    CHANNELS 3 Zrotation Xrotation Yrotation
                                    JOINT RightFinger42
                                    {
                                        OFFSET  -1.858760   0.000000   0.000000
                                        CHANNELS 3 Zrotation Xrotation Yrotation
                                        End Site
                                        {
                                            OFFSET  -1.818440   0.000000   0.000000
                                        }
                                    }
                                }
                            }
                        }
                    }
                }
            }
        }
    }
    JOINT LeftHip
    {
        OFFSET   9.783030   0.000000   0.000000
        CHANNELS 3 Zrotation Xrotation Yrotation
        JOINT LeftKnee
        {
            OFFSET   0.000063 -41.789100   0.000608
            CHANNELS 3 Zrotation Xrotation Yrotation
            JOINT LeftAnkle
            {
                OFFSET   0.000048 -41.133200  -0.000184
                CHANNELS 3 Zrotation Xrotation Yrotation
                JOINT LeftToe
                {
                    OFFSET   0.000000  -6.358960  14.674500
                    CHANNELS 3 Zrotation Xrotation Yrotation
                    End Site
                    {
                        OFFSET   0.000000   0.000000   3.913200
                    }
                }
            }
        }
    }
    JOINT RightHip
    {
        OFFSET  -9.783030   0.000000   0.000000
        CHANNELS 3 Zrotation Xrotation Yrotation
        JOINT RightKnee
        {
            OFFSET   0.000071 -41.789100   0.001239
            CHANNELS 3 Zrotation Xrotation Yrotation
            JOINT RightAnkle
            {
                OFFSET   0.000037 -41.133200  -0.000166
                CHANNELS 3 Zrotation Xrotation Yrotation
                JOINT RightToe
                {
                    OFFSET   0.000000  -6.358960  14.674500
                    CHANNELS 3 Zrotation Xrotation Yrotation
                    End Site
                    {
                        OFFSET   0.000000   0.000000   3.913200
                    }
                }
            }
        }
    }
}
MOTION
Frames: 4
Frame Time:   0.016667
 -0.889871  89.213200   0.486121   1.515480 -21.433300   4.550050  -1.537670  13.504100  -0.409463  -3.108590  27.014400  -0.453188   1.076370  -4.231090   0.079560   1.796350  -8.570240  11.489800  -6.997410  -6.405890   4.138420 -59.968500  35.597900 -26.337500   5.525540  -4.034990 -57.043600   9.515960  -3.519610  23.861600  50.165100  44.144200 -75.122700 -29.235000  -0.005469   0.002184  -9.617480  -0.002798   0.000518 -64.981100   1.253650  -0.638326 -53.193500  -0.064008  -0.055803 -39.895100  -0.010457  -0.063323 -65.840400  -1.778060   0.739767 -65.834700  -0.042976  -0.093605 -49.376000   0.031845  -0.071077 -61.617000  -6.065890   3.213700 -61.777200  -0.059480  -0.089974 -46.332900   0.017170  -0.079561 -68.191500  -9.422120   3.699280 -103.197000   0.050115  -0.189402 -68.431800   0.122133  -0.023023  13.288500  -3.658900  16.363900  56.336400  17.965700  13.822100 -11.164300 -11.411600  82.539800 -36.573400 -20.396200  -5.210850 -52.610400  43.499100  59.687300  25.513300  -0.003484   0.001761   7.756620   0.002663   0.016093  61.143900  -0.147152  -0.158965  50.021800  -0.040093  -0.041599  37.516400  -0.042792  -0.001052  73.505200  -0.244319  -0.172362  73.498000  -0.090643  -0.016156  55.123500  -0.049232   0.048388  71.219900  -5.181970  -1.848680  71.295300  -0.082027  -0.023245  53.471400  -0.050931   0.038729  50.027700  -4.882000  -4.296660  75.327300  -0.228755  -0.160736  50.168100  -0.182397   0.047110  -0.442770  13.438000   0.801130   0.957902  16.603900   7.159350  -7.063650  -9.140090  -0.733618  -0.000000   0.000000   0.000000   4.760400  17.755600  -9.475000  -1.482720   9.412820  -9.544430  -9.817970  -4.238880   1.195500   0.000000   0.000000  -0.000000
 -0.668023  89.266900   0.539383   1.476560 -21.246500   4.296670  -1.531060  13.337700  -0.430317  -3.085650  26.682200  -0.503517   1.035780  -4.296740   0.076927   1.729140  -8.703990  11.678100  -7.022970  -6.282000   4.089110 -59.626100  35.612800 -27.133000   6.167310  -2.825760 -53.902400   7.663960  -1.801440  23.641600  49.332800  43.344300 -73.758100 -29.237200  -0.005376   0.000074  -9.618620  -0.001481   0.000532 -62.981200   1.714900  -0.897394 -51.554100  -0.037015  -0.024885 -38.665600  -0.005671  -0.031286 -63.937200  -2.051550   0.961622 -63.945500  -0.026781  -0.049569 -47.959100   0.013921  -0.043712 -59.604800  -6.134840   3.550690 -59.786700  -0.038017  -0.050209 -44.840700   0.006522  -0.046392 -65.855100  -9.204270   4.068170 -99.738800   0.030324  -0.123618 -66.119100   0.071519  -0.016154  13.217800  -3.578130  16.305400  55.825400  18.147000  14.407000 -11.925500 -11.931500  84.026900 -38.170100 -17.463100  -2.356360 -53.965100  44.767800  61.385100  25.928400  -0.002869   0.001496   7.964210   0.002665   0.017088  59.959500  -0.396417  -0.269730  49.055900  -0.021358  -0.024767  36.792000  -0.024330  -0.000770  72.093400  -0.503816  -0.225935  72.089600  -0.050316  -0.012475  54.067200  -0.032588   0.026550  69.698900  -5.322280  -2.006680  69.788200  -0.037333  -0.015400  52.341100  -0.025002   0.017742  47.363200  -4.414480  -4.172180  71.294800  -0.076160  -0.079859  47.489600  -0.071559   0.008015  -0.678558  13.661200   0.771686   0.977173  15.844300   7.299340  -6.961440  -8.872420  -0.482202   0.000000   0.000000   0.000000   4.565580  17.669000  -9.355390  -1.534140   9.357070  -9.484690  -9.764860  -4.166050   1.281820   0.000000   0.000000   0.000000
 -0.457915  89.320400   0.583434   1.403250 -21.029000   3.979040  -1.521100  13.166400  -0.445592  -3.060500  26.340100  -0.542987   1.001710  -4.375380   0.075071   1.672960  -8.863920  11.891500  -7.039510  -6.194920   4.044270 -59.281500  35.581500 -27.701500   6.841830  -0.669905 -51.419700   7.000090  -1.122600  23.569900  47.815500  41.844600 -71.653000 -29.239500  -0.005169  -0.000455  -9.619760   0.000212   0.000546 -61.516100   2.403280  -1.302140 -50.358700  -0.006088  -0.006412 -37.769000  -0.000885  -0.006587 -62.615000  -2.211520   1.131910 -62.635000  -0.004327  -0.013826 -46.976200   0.005104  -0.009591 -58.089900  -6.163100   3.810200 -58.294000  -0.008208  -0.016175 -43.720500   0.003622  -0.013126 -64.005800  -9.019260   4.355780 -96.526300   0.008096  -0.033287 -64.286500   0.022234  -0.005542  13.152700  -3.509640  16.258300  55.269400  18.403900  15.085000 -12.476900 -12.392500  85.367000 -39.902200 -14.747400   0.581091 -55.218500  45.978400  63.497000  26.441800  -0.002152   0.001171   8.220920   0.002666   0.017230  59.277000  -0.538557  -0.333650  48.499800  -0.005883  -0.008189  36.374900  -0.007189  -0.000368  71.079500  -0.741530  -0.275862  71.079800  -0.020163  -0.007010  53.309800  -0.013350   0.008878  68.982900  -5.405870  -2.080880  69.080500  -0.007287  -0.004480  51.810400  -0.006129   0.002123  46.382800  -4.188030  -3.976320  69.798200   0.018157   0.007574  46.485600   0.011514  -0.006652  -0.886216  13.841800   0.742061   0.975332  15.090500   7.457830  -6.843380  -8.598870  -0.198240   0.000000   0.000000   0.000000   4.378010  17.527300  -9.222950  -1.584510   9.298430  -9.394800  -9.724750  -4.081120   1.379020  -0.000000   0.000000  -0.000000
 -0.258244  89.370800   0.620601   1.307720 -20.794300   3.619360  -1.497860  12.988900  -0.468832  -3.003940  25.985500  -0.606171   0.956803  -4.455400   0.073298   1.598540  -9.026850  12.141600  -7.003140  -6.123560   4.017580 -58.719800  35.951500 -28.088600   7.436640   0.512670 -49.413000   6.418900  -1.928990  23.503200  46.488800  40.146100 -70.096300 -28.878100  -0.004900  -0.000862  -9.439070   0.000595   0.000538 -60.438600   2.772540  -1.562300 -49.481400  -0.001498  -0.003594 -37.111100  -0.000886  -0.002850 -61.705400  -2.339400   1.249430 -61.731700   0.004333  -0.002260 -46.298700   0.003073   0.001589 -56.966600  -6.194070   4.004570 -57.253000   0.003706  -0.003279 -42.924500   0.003622  -0.000113 -62.616100  -8.951460   4.603500 -94.437100   0.005503  -0.002312 -62.913700   0.002702   0.002515  13.079200  -3.428760  16.199600  54.687500  18.432500  15.845600 -12.770400 -12.471500  86.526800 -41.882000 -11.961100   3.847770 -56.670500  47.306300  67.100100  27.082300  -0.001359   0.000835   8.541180   0.002664   0.012778  59.093300  -0.578102  -0.351938  48.349800  -0.001160  -0.001660  36.262400  -0.000785  -0.000167  70.609200  -0.832901  -0.305087  70.610200  -0.018062  -0.003828  52.957600  -0.006318   0.004864  69.043300  -5.401530  -2.073810  69.140300  -0.008639  -0.000228  51.855200  -0.005927  -0.000995  46.906500  -3.582500  -3.381990  70.492500   0.018900   0.015225  46.948000   0.015976  -0.004650  -1.070840  14.054800   0.744901   0.959415  14.288100   7.622750  -6.721900  -8.322340   0.080965  -0.000000   0.000000   0.000000   4.205690  17.368400  -9.110360  -1.638860   9.235000  -9.261920  -9.698720  -3.985900   1.481210  -0.000000   0.000000  -0.000000
